<?xml version="1.0" encoding="UTF-8" standalone="no"?>
<svg
   version="1.1"
   id="Layer_1"
   x="0px"
   y="0px"
   viewBox="0 0 112.24 122.88"
   style="enable-background:new 0 0 112.24 122.88"
   xml:space="preserve"
   sodipodi:docname="plastic-takeaway-coffee.svg"
   inkscape:version="1.1 (c4e8f9e, 2021-05-24)"
   xmlns:inkscape="http://www.inkscape.org/namespaces/inkscape"
   xmlns:sodipodi="http://sodipodi.sourceforge.net/DTD/sodipodi-0.dtd"
   xmlns="http://www.w3.org/2000/svg"
   xmlns:svg="http://www.w3.org/2000/svg"><defs
     id="defs9" /><sodipodi:namedview
     id="namedview7"
     pagecolor="#ffffff"
     bordercolor="#666666"
     borderopacity="1.0"
     inkscape:pageshadow="2"
     inkscape:pageopacity="0.0"
     inkscape:pagecheckerboard="0"
     showgrid="false"
     inkscape:zoom="4.5735678"
     inkscape:cx="56.08313"
     inkscape:cy="61.439999"
     inkscape:window-width="1296"
     inkscape:window-height="784"
     inkscape:window-x="0"
     inkscape:window-y="25"
     inkscape:window-maximized="0"
     inkscape:current-layer="Layer_1" /><g
     id="g4"
     transform="matrix(0.99311508,0,0,0.9900566,0,1.2217723)"><path
       d="m 84.81,0.03 c 2.37,0 1.98,0 2.08,0 7.43,-0.05 11.68,-0.08 15.72,5.63 0.05,0.06 0.09,0.12 0.13,0.18 l 7.36,11.36 c 0.06,0.09 0.12,0.18 0.17,0.27 0.03,0.04 0.05,0.07 0.08,0.11 0.8,1.19 1.88,2.83 1.88,4.55 0,2.3 -1.21,3.97 -4.85,3.97 h -4.3 l -9.89,75.66 c -0.12,0.89 -0.21,1.83 -0.3,2.8 -0.5,5.11 -1.05,10.74 -5.15,14.46 -4.51,4.1 -11.19,3.94 -16.92,3.8 -0.73,-0.02 -1.43,-0.03 -2.68,-0.03 H 34.95 v -0.01 c -5.03,0.14 -8.92,-1.14 -11.69,-3.83 l -0.13,-0.12 c -0.04,-0.04 -0.08,-0.08 -0.13,-0.13 -0.04,-0.04 -0.08,-0.09 -0.12,-0.13 l -0.12,-0.13 -0.12,-0.13 -0.12,-0.13 c -0.04,-0.05 -0.08,-0.09 -0.12,-0.14 l -0.11,-0.14 -0.11,-0.14 -0.11,-0.14 -0.11,-0.14 -0.11,-0.14 -0.11,-0.15 -0.1,-0.15 -0.1,-0.15 -0.1,-0.15 -0.1,-0.15 -0.1,-0.16 v 0 l -0.09,-0.16 -0.09,-0.16 -0.09,-0.16 v 0 l -0.09,-0.16 -0.09,-0.16 -0.09,-0.17 -0.08,-0.17 -0.08,-0.17 v 0 l -0.08,-0.17 -0.08,-0.17 -0.08,-0.18 -0.07,-0.18 v 0 l -0.07,-0.18 -0.07,-0.18 -0.07,-0.18 -0.07,-0.18 -0.07,-0.19 -0.06,-0.19 v 0 l -0.06,-0.19 -0.06,-0.19 -0.06,-0.19 -0.06,-0.19 v 0 l -0.05,-0.2 -0.05,-0.2 v 0 l -0.05,-0.2 v 0 l -0.05,-0.2 v 0 l -0.05,-0.2 -0.05,-0.21 v 0 l -0.04,-0.21 v 0 l -0.04,-0.21 -0.04,-0.21 v 0 l -0.04,-0.21 v 0 l -0.04,-0.21 -0.04,-0.22 v 0 l -0.03,-0.22 v 0 l -0.03,-0.22 v 0 l -0.03,-0.22 v 0 l -0.03,-0.22 v 0 l -0.03,-0.22 -0.02,-0.23 v 0 l -0.02,-0.23 -0.02,-0.23 -0.02,-0.23 -0.02,-0.23 -0.02,-0.23 -0.01,-0.24 -1.42,-10.89 C 17.31,96.33 17.29,96.18 17.28,96.03 L 8.14,26.1 H 4.82 C 1.23,26.1 0,24.41 0,22.02 0,20.04 1.4,17.95 2.39,16.49 2.6,16.17 2.79,15.89 2.86,15.78 L 7.83,7.59 c 4.66,-7.68 5.86,-7.67 14.4,-7.57 0.42,0 0.87,0.01 2.91,0.01 19.92,0 39.76,0 59.67,0 z m 12.9,26.11 h -84.2 l 8.77,67.11 h 66.66 l 8.77,-67.11 z m -74.73,72.45 1.07,8.22 c 0.01,0.07 0.02,0.14 0.02,0.21 v 0 c 0.19,3.72 1.15,6.44 2.9,8.13 1.71,1.65 4.33,2.43 7.89,2.32 h 0.08 v -0.01 h 33.19 c 0.49,0 1.63,0.03 2.81,0.05 4.74,0.11 10.27,0.24 13.21,-2.43 2.59,-2.36 3.04,-6.9 3.44,-11.02 0.1,-1.02 0.2,-2.02 0.32,-2.99 l 0.32,-2.48 H 22.98 Z"
       id="path2" /></g><path
     style="fill:#ff6600;stroke-width:0.218648"
     d="M 22.309894,92.542631 C 22.243174,92.151799 20.319948,77.466874 18.036059,59.909465 15.75217,42.352056 13.825823,27.617935 13.755288,27.166974 L 13.627043,26.347046 H 55.62115 97.615258 l -0.111045,0.601281 c -0.13404,0.725795 -8.62393,65.791923 -8.62393,66.093403 0,0.135316 -11.968462,0.211506 -33.224541,0.211506 H 22.431203 Z"
     id="path66" /><path
     style="fill:#ff7f2a;stroke-width:0.218648"
     d="M 22.520179,92.979927 C 22.467306,92.829606 20.477198,77.800311 18.097717,59.581493 L 13.771388,26.45637 55.51602,26.401146 c 22.959548,-0.03037 41.787262,-0.0126 41.839364,0.03951 0.0521,0.0521 -1.039945,8.735401 -2.426773,19.29622 -1.386827,10.56082 -3.336616,25.507081 -4.332862,33.213918 L 88.78439,92.963216 69.117875,93.108227 c -31.699969,0.233737 -46.484674,0.193031 -46.597696,-0.1283 z"
     id="path142" /><path
     style="fill:#ff9955;stroke-width:0.218648"
     d="m 26.729679,93.095401 c -2.254804,-0.03875 -4.102474,-0.09289 -4.105932,-0.1203 -0.0035,-0.02741 -0.245612,-1.722491 -0.538119,-3.766847 -0.292506,-2.044356 -0.587498,-4.258163 -0.655537,-4.919573 -0.06804,-0.661409 -0.222715,-1.792911 -0.343725,-2.514448 -0.121009,-0.721537 -0.268597,-1.853039 -0.327971,-2.514448 -0.05937,-0.66141 -0.211259,-1.792911 -0.337521,-2.514449 -0.126262,-0.721537 -0.234163,-1.459473 -0.239779,-1.639857 -0.0056,-0.180385 -0.244016,-2.049822 -0.52978,-4.154306 -0.285763,-2.104484 -0.571428,-4.367488 -0.634812,-5.028897 -0.06338,-0.661409 -0.218548,-1.792911 -0.344811,-2.514448 C 18.54543,62.68629 18.4385,61.948354 18.434071,61.76797 c -0.0044,-0.180384 -0.150933,-1.311886 -0.325562,-2.514448 -0.17463,-1.202562 -0.322217,-2.334064 -0.327972,-2.514449 -0.0058,-0.180384 -0.153342,-1.311886 -0.327971,-2.514448 -0.17463,-1.202562 -0.322217,-2.334064 -0.327972,-2.514448 -0.0058,-0.180385 -0.149299,-1.311886 -0.318986,-2.514449 -0.169687,-1.202562 -0.359768,-2.757613 -0.422401,-3.45567 -0.06263,-0.698056 -0.201506,-1.499668 -0.308605,-1.781361 -0.1071,-0.281692 -0.150118,-0.556777 -0.0956,-0.611299 0.05452,-0.05452 -0.05103,-1.122346 -0.234569,-2.372944 C 15.560899,39.723856 15.359774,38.159487 15.29749,37.498077 15.2352,36.836668 15.085237,35.705166 14.964227,34.983629 14.843221,34.262092 14.695634,33.13059 14.63626,32.469181 14.576885,31.807772 14.429392,30.67627 14.308496,29.954732 14.1876,29.233195 14.044808,28.175487 13.991179,27.60427 l -0.09751,-1.038577 h 41.675852 41.675853 l -0.161985,1.366548 c -0.08909,0.751602 -0.202243,1.858506 -0.251445,2.459787 -0.0492,0.601281 -0.184698,1.634391 -0.301106,2.2958 -0.116406,0.66141 -0.25715,1.819147 -0.312763,2.57275 -0.05561,0.753603 -0.147484,1.445217 -0.20416,1.536919 -0.05668,0.0917 -0.161705,0.803403 -0.2334,1.581557 -0.07169,0.778153 -0.225375,2.028633 -0.34151,2.778845 -0.116137,0.750211 -0.261896,1.881713 -0.323911,2.514448 -0.06202,0.632735 -0.346561,2.872278 -0.632323,4.976762 -0.285763,2.104484 -0.525248,3.973922 -0.53219,4.154306 -0.0069,0.180385 -0.164983,1.341587 -0.351203,2.580452 -0.186222,1.238864 -0.323726,2.32117 -0.305562,2.405124 0.01817,0.08395 -0.03413,0.497015 -0.11621,0.917912 -0.08208,0.420896 -0.202607,1.257224 -0.267849,1.858505 -0.199928,1.84254 -0.288526,2.541893 -0.609404,4.810249 -0.17011,1.202562 -0.314855,2.334064 -0.321653,2.514448 -0.0068,0.180385 -0.2039,1.705452 -0.438008,3.389039 -0.234108,1.683587 -0.428956,3.208655 -0.432993,3.389039 -0.004,0.180385 -0.110644,0.918321 -0.236906,1.639858 -0.126263,0.721537 -0.280075,1.853039 -0.341806,2.514448 -0.06173,0.66141 -0.29949,2.580043 -0.528358,4.26363 -0.228869,1.683587 -0.421812,3.208655 -0.428765,3.389039 -0.007,0.180385 -0.1671,1.351188 -0.35588,2.601785 -0.188781,1.250599 -0.300381,2.316671 -0.248001,2.36905 0.05238,0.05238 -8.75e-4,0.370848 -0.118271,0.707706 l -0.213508,0.612469 -6.820027,0.129444 c -8.035231,0.152511 -49.159347,0.301659 -55.086502,0.199789 z"
     id="path218" /><path
     style="fill:#ffb380;stroke-width:0.218648"
     d="m 23.153316,92.884386 c -0.569378,-0.11205 -0.548049,0.03707 -6.436491,-45.000544 -0.251567,-1.924099 -0.747226,-5.761366 -1.101466,-8.527259 -0.354239,-2.765893 -0.796184,-6.160399 -0.9821,-7.543345 -0.185915,-1.382947 -0.394801,-3.129395 -0.464191,-3.880997 l -0.126163,-1.366548 h 41.575579 41.575579 l -0.114825,0.819929 c -0.06315,0.450961 -0.356078,2.787758 -0.650944,5.192883 -0.643996,5.252873 -1.391505,11.110094 -2.413711,18.913024 -1.690486,12.904169 -3.45926,26.533362 -4.349292,33.513206 -0.517919,4.061643 -1.012957,7.456148 -1.100088,7.543345 -0.08713,0.08719 -5.24203,0.222129 -11.455335,0.299851 -12.352746,0.154523 -53.216309,0.182132 -53.956552,0.03646 z"
     id="path294" /><path
     style="fill:#ff9955;stroke-width:0.224126"
     d="M 22.126604,93.54455 C 21.882941,93.137187 21.477558,90.580398 20.406219,82.693888 18.727228,70.334255 13.009537,26.323977 13.009537,25.760068 c 0,-0.03794 19.115184,-0.06897 42.478187,-0.06897 h 42.478188 l -0.738065,5.891036 c -0.976592,7.794878 -7.361387,57.21129 -7.69995,59.595322 -0.21165,1.490344 -0.358065,1.916057 -0.7317,2.127479 -0.559133,0.316388 -66.481951,0.553315 -66.669593,0.239612 z"
     id="path370" /><path
     style="fill:#803300;stroke-width:0.22761"
     d="m 50.844531,117.75639 -20.70153,-0.13595 -1.263313,-0.52837 c -2.501838,-1.04634 -3.890929,-2.54661 -4.873876,-5.26395 -0.4422,-1.22244 -0.577993,-2.09753 -1.364171,-8.79107 -0.254211,-2.16435 -0.51028,-4.169572 -0.569041,-4.456031 l -0.10684,-0.520837 h 33.238615 c 27.60023,0 33.238612,0.05252 33.238612,0.309586 0,0.977749 -0.949399,9.119992 -1.241819,10.650082 -0.75709,3.96153 -2.003076,6.03963 -4.361613,7.27446 -3.124465,1.63586 -3.427187,1.6497 -31.995024,1.46208 z"
     id="path563" /><path
     style="fill:#aa4400;stroke-width:0.22542"
     d="m 81.777469,93.628865 c 0,0 2.327777,-16.069021 5.008972,-34.553534 2.681184,-18.484513 4.939326,-33.670804 5.018091,-33.747312 0.07877,-0.07651 1.740727,-0.01042 3.693273,0.146873 2.857449,0.230184 3.987368,-0.08686 3.987368,0.179076 0,0.337468 -9.950195,66.006582 -10.187171,67.294083 -0.14933,0.811335 1.074572,0.908971 -3.758475,1.063928 z"
     id="path994"
     sodipodi:nodetypes="ssssssscs" /><path
     style="fill:#d45500;stroke-width:0.218648"
     d="m 83.376424,93.725113 c -0.682126,-0.08049 -1.287906,-0.195001 -1.346177,-0.254453 -0.103346,-0.105445 0.694073,-5.718319 5.435882,-38.26212 2.900284,-19.905116 4.240129,-28.857174 4.39664,-29.375765 0.115109,-0.381407 0.333845,-0.39582 3.762746,-0.247942 2.002293,0.08635 3.661922,0.175178 3.688064,0.197389 0.02614,0.02221 -0.144626,1.314483 -0.379486,2.871715 -0.23486,1.557231 -1.360365,9.029991 -2.501123,16.606133 -4.27366,28.382748 -7.332439,48.283095 -7.437491,48.388149 -0.178377,0.178375 -4.283097,0.234548 -5.619055,0.07689 z"
     id="path1864" /></svg>
